<svg width="800" height="460" viewBox="0 0 800 460" fill="none" xmlns="http://www.w3.org/2000/svg">
<path d="M541.012 355.323C498.409 355.323 463.872 320.786 463.872 278.183C463.872 235.58 498.409 201.043 541.012 201.043C583.616 201.043 618.152 235.58 618.152 278.183C618.152 320.786 583.616 355.323 541.012 355.323Z" fill="white"/>
<path d="M254.493 355.323C211.89 355.323 177.353 320.786 177.353 278.183C177.353 235.58 211.89 201.043 254.493 201.043C297.096 201.043 331.633 235.58 331.633 278.183C331.633 320.786 297.096 355.323 254.493 355.323Z" fill="white"/>
<path d="M517.276 331.589C499.017 331.589 484.216 316.787 484.216 298.529C484.216 280.27 499.017 265.469 517.276 265.469C535.534 265.469 550.336 280.27 550.336 298.529C550.336 316.787 535.534 331.589 517.276 331.589Z" fill="black" fill-opacity="0.7"/>
<path d="M230.756 331.589C212.498 331.589 197.696 316.787 197.696 298.529C197.696 280.27 212.498 265.469 230.756 265.469C249.015 265.469 263.816 280.27 263.816 298.529C263.816 316.787 249.015 331.589 230.756 331.589Z" fill="black" fill-opacity="0.7"/>
<path d="M623.107 167.995C598.282 133.063 545.741 115.494 491.938 132.844C486.134 134.715 479.911 131.527 478.039 125.723C476.167 119.918 479.355 113.695 485.16 111.823C548.152 91.5101 610.715 112.431 641.11 155.201C644.643 160.172 643.477 167.066 638.506 170.599C633.534 174.132 626.64 172.966 623.107 167.995Z" fill="black" fill-opacity="0.6"/>
<path d="M177.045 206.622C198.662 176.205 257.923 159.149 308.97 171.685C314.892 173.139 320.873 169.517 322.328 163.594C323.782 157.671 320.16 151.691 314.237 150.236C254.954 135.678 186.332 155.429 159.042 193.827C155.509 198.799 156.675 205.693 161.647 209.226C166.618 212.759 173.512 211.593 177.045 206.622Z" fill="black" fill-opacity="0.6"/>
</svg>
