<svg width="800" height="460" viewBox="0 0 800 460" fill="none" xmlns="http://www.w3.org/2000/svg">
<path d="M359.034 280.261C355.875 284.227 351.976 287.688 347.338 290.646C342.7 293.603 337.726 296.057 332.416 298.006C327.106 299.956 321.661 301.401 316.082 302.342C310.503 303.35 305.192 303.854 300.151 303.854C290.404 303.854 281.431 302.107 273.23 298.611C265.029 295.116 257.938 290.31 251.956 284.193C246.04 278.009 241.402 270.749 238.041 262.414C234.68 254.079 233 245.106 233 235.493C233 228.167 233.84 221.008 235.521 214.017C237.201 206.959 239.587 200.338 242.679 194.154C245.839 187.903 249.67 182.189 254.174 177.013C258.677 171.77 263.786 167.267 269.499 163.503C275.213 159.738 281.464 156.814 288.253 154.731C295.042 152.647 302.302 151.605 310.032 151.605C312.922 151.605 316.015 151.739 319.308 152.008C322.602 152.21 325.862 152.613 329.088 153.218C332.382 153.756 335.575 154.529 338.667 155.537C341.759 156.546 344.582 157.789 347.137 159.268L344.313 197.784C340.549 196.372 336.65 195.431 332.617 194.961C328.652 194.423 324.753 194.154 320.921 194.154C315.544 194.154 310.503 194.994 305.797 196.675C301.159 198.288 297.093 200.641 293.597 203.733C290.169 206.825 287.447 210.589 285.43 215.025C283.414 219.462 282.405 224.47 282.405 230.049C282.405 233.544 282.876 236.939 283.817 240.232C284.758 243.459 286.17 246.349 288.052 248.903C290.001 251.39 292.387 253.407 295.21 254.953C298.101 256.499 301.428 257.272 305.192 257.272C307.747 257.272 310.368 256.936 313.057 256.264C315.813 255.592 318.165 254.449 320.115 252.836L320.518 244.971L296.32 244.568L297.529 214.32C307.545 213.983 317.561 213.715 327.576 213.513C337.592 213.244 347.674 212.908 357.824 212.505L359.034 280.261Z" fill="white"/>
<path d="M500.713 229.645C500.713 235.762 500.007 241.677 498.595 247.391C497.184 253.037 495.134 258.347 492.445 263.322C489.823 268.296 486.597 272.867 482.765 277.034C479.001 281.134 474.733 284.663 469.96 287.621C465.255 290.579 460.113 292.898 454.534 294.578C448.955 296.191 443.039 296.998 436.788 296.998C430.739 296.998 424.958 296.225 419.446 294.679C414.001 293.133 408.893 290.982 404.12 288.226C399.348 285.403 395.012 282.042 391.113 278.143C387.282 274.177 383.988 269.808 381.232 265.036C378.544 260.196 376.426 255.02 374.88 249.508C373.401 243.996 372.662 238.249 372.662 232.267C372.662 226.419 373.368 220.705 374.779 215.126C376.191 209.48 378.207 204.17 380.829 199.195C383.518 194.221 386.744 189.65 390.508 185.483C394.273 181.315 398.474 177.719 403.112 174.694C407.817 171.67 412.892 169.317 418.337 167.637C423.781 165.956 429.529 165.116 435.578 165.116C445.325 165.116 454.198 166.628 462.197 169.653C470.263 172.678 477.119 177.013 482.765 182.66C488.479 188.239 492.882 195.028 495.974 203.027C499.133 210.959 500.713 219.831 500.713 229.645ZM455.945 232.267C455.945 229.376 455.508 226.587 454.635 223.898C453.828 221.142 452.618 218.722 451.005 216.639C449.392 214.488 447.375 212.774 444.955 211.496C442.603 210.152 439.88 209.48 436.788 209.48C433.629 209.48 430.806 210.051 428.319 211.194C425.832 212.337 423.681 213.916 421.866 215.933C420.118 217.882 418.774 220.201 417.833 222.89C416.892 225.511 416.421 228.301 416.421 231.259C416.421 234.082 416.824 236.905 417.631 239.728C418.438 242.551 419.648 245.106 421.261 247.391C422.874 249.676 424.857 251.525 427.21 252.936C429.629 254.348 432.419 255.054 435.578 255.054C438.738 255.054 441.561 254.449 444.048 253.239C446.602 251.962 448.753 250.281 450.501 248.198C452.248 246.047 453.593 243.593 454.534 240.837C455.475 238.081 455.945 235.224 455.945 232.267Z" fill="white"/>
<path d="M566.468 151L558.2 257.07H520.894L517.063 151H566.468ZM559.814 288.125C559.814 291.083 559.242 293.839 558.1 296.393C556.957 298.947 555.411 301.165 553.462 303.048C551.579 304.997 549.361 306.509 546.807 307.585C544.253 308.728 541.53 309.299 538.64 309.299C535.682 309.299 532.926 308.728 530.372 307.585C527.818 306.509 525.566 304.997 523.617 303.048C521.735 301.165 520.222 298.947 519.079 296.393C518.004 293.839 517.466 291.083 517.466 288.125C517.466 285.235 518.004 282.479 519.079 279.857C520.222 277.236 521.735 274.984 523.617 273.102C525.566 271.153 527.818 269.607 530.372 268.464C532.926 267.321 535.682 266.75 538.64 266.75C541.53 266.75 544.253 267.321 546.807 268.464C549.361 269.607 551.579 271.153 553.462 273.102C555.411 274.984 556.957 277.236 558.1 279.857C559.242 282.479 559.814 285.235 559.814 288.125Z" fill="white"/>
</svg>
