<svg width="800" height="460" viewBox="0 0 800 460" fill="none" xmlns="http://www.w3.org/2000/svg">
<path d="M206.611 155.572L282.115 80.0683C298.206 63.9772 324.612 63.9772 341.114 80.0683L424.877 163.404L439.32 177.846L584.551 323.49C599.816 338.756 599.816 363.101 584.551 378.365L583.725 379.191C571.347 391.569 551.955 395.282 536.69 386.205C530.502 382.903 525.137 377.539 521.425 370.939C506.16 343.296 480.992 302.449 445.921 259.54C438.907 250.874 425.703 250.051 417.866 257.891L363.406 312.351C360.931 314.827 356.804 315.653 353.503 314.001C348.553 311.111 348.138 304.924 351.854 301.211L394.759 259.126C397.234 256.651 397.234 252.112 394.759 249.637C392.284 247.162 387.745 247.162 385.27 249.637L343.185 291.722C340.71 294.197 336.583 295.023 333.282 293.371C328.332 290.482 327.918 284.294 331.633 280.582L373.718 238.085C376.193 235.61 376.193 231.071 373.718 228.596C371.243 226.121 366.704 226.121 364.229 228.596L322.144 270.678C319.255 273.568 314.304 274.391 311.003 271.504C307.291 268.615 306.876 262.838 310.177 259.54L353.088 217.456C355.563 214.98 355.563 210.442 353.088 207.967C350.613 205.492 346.075 205.492 343.6 207.967L301.103 250.049C298.628 252.524 294.501 253.35 291.2 251.698C286.25 248.808 285.835 242.621 289.551 238.908L332.048 196.411C334.523 193.936 334.523 189.398 332.048 186.923C329.572 184.448 325.034 184.448 322.559 186.923L280.474 229.419C277.999 231.895 273.872 232.721 270.571 231.069C265.621 228.179 265.206 221.992 268.922 218.279L311.419 175.782C313.894 173.307 313.894 168.769 311.419 166.293C308.943 163.818 304.405 163.818 301.93 166.293L259.845 208.378C256.955 211.268 252.005 212.091 248.704 209.204C244.991 206.315 244.577 200.538 247.878 197.241L290.375 154.741C292.85 152.266 292.85 147.727 290.375 145.252C287.9 142.777 283.361 142.777 280.886 145.252L238.801 187.337C236.326 189.812 232.199 190.638 228.898 188.986C223.948 186.097 223.534 179.909 227.249 176.197L269.746 134.112C272.221 131.637 272.221 127.098 269.746 124.623C267.271 122.148 262.732 122.148 260.257 124.623L218.172 166.708C215.697 169.183 211.57 170.009 208.269 168.357C203.319 165.467 202.908 159.28 206.62 155.567L206.611 155.572ZM556.075 366.818C564.326 366.818 570.928 360.216 570.928 351.965C570.928 343.714 564.326 337.112 556.075 337.112C547.824 337.112 541.633 343.714 541.633 351.965C541.633 360.216 547.824 366.818 556.075 366.818Z" fill="#484746"/>
</svg>
