<svg width="800" height="460" viewBox="0 0 800 460" fill="none" xmlns="http://www.w3.org/2000/svg">
<path fill-rule="evenodd" clip-rule="evenodd" d="M236.067 165.526C245.278 248.157 315.369 312.405 400.468 312.405C485.83 312.405 556.092 247.759 564.953 164.76C565.666 158.08 558.205 147 548.854 147C419.177 147 319.826 147 253.211 147C243.806 147 235.146 157.259 236.067 165.526Z" fill="black" fill-opacity="0.7"/>
<path fill-rule="evenodd" clip-rule="evenodd" d="M444.001 242.762C470.072 242.762 493.711 253.178 510.981 270.075C481.685 296.397 442.946 312.406 400.468 312.406C357.986 312.406 319.244 296.395 289.949 270.079C307.224 253.178 330.863 242.762 356.934 242.762C372.612 242.762 387.411 246.528 400.473 253.206C413.531 246.527 428.326 242.762 444.001 242.762Z" fill="#FF4F6D" fill-opacity="0.7"/>
<path fill-rule="evenodd" clip-rule="evenodd" d="M539.774 147C539.774 171.04 520.284 190.528 496.241 190.528H313.401C289.358 190.528 269.867 171.04 269.867 147H539.774Z" fill="white"/>
</svg>
