<svg width="800" height="460" viewBox="0 0 800 460" fill="none" xmlns="http://www.w3.org/2000/svg">
<path d="M525.724 161.396C515.457 158.645 504.863 164.755 502.11 175.029L484.459 240.901C483.813 243.312 481.328 244.753 478.921 244.108C476.51 243.462 475.065 240.976 475.713 238.557L502.064 140.216C504.814 129.953 498.705 119.367 488.442 116.617C478.175 113.866 467.581 119.972 464.83 130.24L438.48 228.581C437.834 230.992 435.349 232.433 432.941 231.788C430.53 231.142 429.085 228.656 429.734 226.237L461.881 106.259C464.631 95.9964 458.523 85.4096 448.259 82.6596C437.993 79.9086 427.399 86.0154 424.648 96.2827L392.5 216.26C391.854 218.671 389.369 220.112 386.962 219.467C384.551 218.821 383.11 216.336 383.758 213.918L408.659 121.002C411.41 110.735 405.303 100.141 395.035 97.3901C384.768 94.639 374.174 100.75 371.421 111.024L337.847 236.324L334.486 240.904L297.723 210.136C288.294 201.964 278.11 200.201 269.597 205.123C260.402 210.432 257.277 222.321 262.584 231.54L312.697 322.447C327.968 348.842 350.768 367.237 376.905 374.241C434.39 389.644 493.68 355.404 509.085 297.91L539.338 185.003C542.097 174.739 535.99 164.145 525.723 161.394L525.724 161.396Z" fill="#E8B896"/>
</svg>
