<svg width="2600" height="2100" viewBox="0 0 2600 2100" fill="none" xmlns="http://www.w3.org/2000/svg">
<path fill-rule="evenodd" clip-rule="evenodd" d="M1077.09 1925.14C1089.58 1813.11 1184.59 1726 1299.96 1726C1415.68 1726 1510.92 1813.65 1522.94 1926.18C1523.9 1935.24 1513.79 1950.26 1501.11 1950.26C1325.32 1950.26 1190.64 1950.26 1100.33 1950.26C1087.58 1950.26 1075.84 1936.35 1077.09 1925.14Z" fill="black" fill-opacity="0.7"/>
<path fill-rule="evenodd" clip-rule="evenodd" d="M1358.97 1855.83C1418.4 1855.83 1468.5 1895.76 1483.91 1950.24H1116C1131.42 1895.76 1181.52 1855.83 1240.94 1855.83C1262.2 1855.83 1282.26 1860.94 1299.96 1869.99C1317.67 1860.94 1337.72 1855.83 1358.97 1855.83Z" fill="#FF4F6D" fill-opacity="0.7"/>
<path fill-rule="evenodd" clip-rule="evenodd" d="M1299.96 1726C1356.82 1726 1408.74 1747.16 1448.27 1782.04C1442.46 1783.98 1436.24 1785.01 1429.79 1785.01H1181.93C1172.42 1785.01 1163.43 1782.76 1155.47 1778.77C1194.49 1745.83 1244.91 1726 1299.96 1726Z" fill="white"/>
</svg>
