<svg width="2600" height="2100" viewBox="0 0 2600 2100" fill="none" xmlns="http://www.w3.org/2000/svg">
<g opacity="0.6">
<path opacity="0.6" fill-rule="evenodd" clip-rule="evenodd" d="M1544.9 1609.78C1503.15 1634.08 1474.37 1677.94 1474.37 1729.8C1474.37 1800.09 1542.26 1860.87 1620.77 1860.87C1621.5 1860.87 1622.23 1860.86 1622.96 1860.85C1606.12 1866.9 1587.73 1870.23 1568.48 1870.23C1502.48 1870.23 1446.68 1831.13 1428.41 1777.38C1397.74 1804.12 1351.82 1821.11 1300.5 1821.11C1249.18 1821.11 1203.26 1804.12 1172.57 1777.37C1154.31 1831.13 1098.52 1870.23 1032.52 1870.23C1013.26 1870.23 994.881 1866.9 978.043 1860.85C978.772 1860.86 979.502 1860.87 980.233 1860.87C1058.74 1860.87 1126.63 1800.09 1126.63 1729.8C1126.63 1677.94 1097.85 1634.08 1056.1 1609.78C1124.29 1619.67 1176.69 1671.73 1178.84 1735.11C1210.63 1756.65 1253.43 1769.84 1300.5 1769.84C1347.57 1769.84 1390.36 1756.65 1422.17 1735.12C1424.31 1671.73 1476.71 1619.67 1544.9 1609.78Z" fill="black" fill-opacity="0.6"/>
</g>
<path d="M841.62 1833.02C903.265 1833.02 953.239 1783.05 953.239 1721.4C953.239 1659.76 903.265 1609.78 841.62 1609.78C779.974 1609.78 730 1659.76 730 1721.4C730 1783.05 779.974 1833.02 841.62 1833.02Z" fill="#FF4646" fill-opacity="0.2"/>
<path d="M1759.38 1833.02C1821.03 1833.02 1871 1783.05 1871 1721.4C1871 1659.76 1821.03 1609.78 1759.38 1609.78C1697.74 1609.78 1647.76 1659.76 1647.76 1721.4C1647.76 1783.05 1697.74 1833.02 1759.38 1833.02Z" fill="#FF4646" fill-opacity="0.2"/>
</svg>
