<svg width="2600" height="2100" viewBox="0 0 2600 2100" fill="none" xmlns="http://www.w3.org/2000/svg">
<path fill-rule="evenodd" clip-rule="evenodd" d="M1077.09 1755.08C1089.58 1867.11 1184.59 1954.21 1299.95 1954.21C1415.66 1954.21 1510.91 1866.57 1522.92 1754.04C1523.89 1744.98 1513.77 1729.96 1501.1 1729.96C1325.31 1729.96 1190.63 1729.96 1100.33 1729.96C1087.58 1729.96 1075.84 1743.87 1077.09 1755.08Z" fill="black" fill-opacity="0.7"/>
<path fill-rule="evenodd" clip-rule="evenodd" d="M1358.96 1859.79C1394.3 1859.79 1426.35 1873.91 1449.76 1896.82C1410.05 1932.51 1357.53 1954.21 1299.95 1954.21C1242.36 1954.21 1189.84 1932.5 1150.13 1896.83C1173.55 1873.91 1205.59 1859.79 1240.94 1859.79C1262.19 1859.79 1282.25 1864.9 1299.96 1873.95C1317.66 1864.9 1337.71 1859.79 1358.96 1859.79Z" fill="#FF4F6D" fill-opacity="0.7"/>
<path fill-rule="evenodd" clip-rule="evenodd" d="M1488.79 1729.96C1488.79 1762.55 1462.37 1788.98 1429.78 1788.98H1181.92C1149.33 1788.98 1122.91 1762.55 1122.91 1729.96H1488.79Z" fill="white"/>
</svg>
