<svg width="2600" height="2100" viewBox="0 0 2600 2100" fill="none" xmlns="http://www.w3.org/2000/svg">
<path d="M1454.58 1718.31H1146.42C1088.2 1718.31 1041 1765.51 1041 1823.73C1041 1881.96 1088.2 1929.16 1146.42 1929.16H1454.58C1512.8 1929.16 1560 1881.96 1560 1823.73C1560 1765.51 1512.8 1718.31 1454.58 1718.31Z" fill="black" fill-opacity="0.6"/>
<mask id="mask0_20_1675" style="mask-type:alpha" maskUnits="userSpaceOnUse" x="1057" y="1734" width="487" height="179">
<path d="M1454.58 1734.53H1146.42C1097.16 1734.53 1057.22 1774.47 1057.22 1823.73C1057.22 1873 1097.16 1912.94 1146.42 1912.94H1454.58C1503.84 1912.94 1543.78 1873 1543.78 1823.73C1543.78 1774.47 1503.84 1734.53 1454.58 1734.53Z" fill="white"/>
</mask>
<g mask="url(#mask0_20_1675)">
<path d="M1454.58 1734.53H1146.42C1097.16 1734.53 1057.22 1774.47 1057.22 1823.73C1057.22 1873 1097.16 1912.94 1146.42 1912.94H1454.58C1503.84 1912.94 1543.78 1873 1543.78 1823.73C1543.78 1774.47 1503.84 1734.53 1454.58 1734.53Z" fill="white"/>
<path fill-rule="evenodd" clip-rule="evenodd" d="M1146.42 1734.53V1815.63H1219.41V1734.53H1251.84V1815.63H1341.05V1734.53H1373.48V1815.63H1446.47V1734.53H1478.91V1815.62L1543.78 1815.63V1839.95L1478.91 1839.95V1912.94H1446.47V1839.95H1373.48V1912.94H1341.05V1839.95H1251.84V1912.94H1219.41V1839.95H1146.42V1912.94H1113.98V1839.95H1049.11V1815.63H1113.98V1734.53H1146.42Z" fill="#E6E6E6"/>
</g>
</svg>
