<svg width="2600" height="2100" viewBox="0 0 2600 2100" fill="none" xmlns="http://www.w3.org/2000/svg">
<path fill-rule="evenodd" clip-rule="evenodd" d="M1060.18 1753.01C1073.7 1845.27 1175.83 1919.75 1299.87 1919.75C1424.21 1919.75 1526.59 1844.81 1539.57 1744.67C1540.54 1740.84 1537.41 1728 1518.72 1728C1327.09 1728 1182.33 1728 1081.03 1728C1063.86 1728 1058.94 1739.89 1060.18 1753.01Z" fill="black" fill-opacity="0.7"/>
<path fill-rule="evenodd" clip-rule="evenodd" d="M1453.28 1728C1453.28 1754.48 1431.81 1775.94 1405.34 1775.94H1204C1177.52 1775.94 1156.06 1754.48 1156.06 1728H1453.28Z" fill="white"/>
<path fill-rule="evenodd" clip-rule="evenodd" d="M1352.61 1795.11C1387.03 1795.11 1414.93 1810.14 1414.93 1828.67C1414.93 1829.47 1414.88 1830.26 1414.77 1831.04C1414.87 1831.83 1414.93 1832.64 1414.93 1833.46V1919.75C1414.93 1978 1367.71 2025.22 1309.46 2025.22H1299.87C1241.63 2025.22 1194.41 1978 1194.41 1919.75V1833.46C1194.41 1832.64 1194.46 1831.83 1194.56 1831.03C1194.46 1830.26 1194.41 1829.47 1194.41 1828.67C1194.41 1810.14 1222.31 1795.11 1256.73 1795.11C1276.01 1795.11 1293.25 1799.83 1304.68 1807.24C1316.1 1799.83 1333.33 1795.11 1352.61 1795.11Z" fill="#FF4F6D"/>
</svg>
