<svg width="2600" height="2100" viewBox="0 0 2600 2100" fill="none" xmlns="http://www.w3.org/2000/svg">
<path fill-rule="evenodd" clip-rule="evenodd" d="M1077.09 1755.08C1089.58 1867.11 1184.59 1954.21 1299.95 1954.21C1415.66 1954.21 1510.91 1866.57 1522.92 1754.04C1523.89 1744.98 1513.77 1729.96 1501.1 1729.96C1325.31 1729.96 1190.63 1729.96 1100.33 1729.96C1087.58 1729.96 1075.84 1743.87 1077.09 1755.08Z" fill="black" fill-opacity="0.7"/>
<path fill-rule="evenodd" clip-rule="evenodd" d="M1358.96 1859.79C1394.3 1859.79 1426.35 1873.91 1449.76 1896.82C1410.05 1932.51 1357.53 1954.21 1299.95 1954.21C1242.36 1954.21 1189.84 1932.5 1150.13 1896.83C1173.55 1873.91 1205.59 1859.79 1240.94 1859.79C1262.19 1859.79 1282.25 1864.9 1299.96 1873.95C1317.66 1864.9 1337.71 1859.79 1358.96 1859.79Z" fill="#FF4F6D" fill-opacity="0.7"/>
<path fill-rule="evenodd" clip-rule="evenodd" d="M1488.79 1729.96C1488.79 1762.55 1462.37 1788.98 1429.78 1788.98H1181.93C1149.34 1788.98 1122.91 1762.55 1122.91 1729.96H1488.79Z" fill="white"/>
<path d="M841.62 1809.02C903.265 1809.02 953.239 1759.05 953.239 1697.4C953.239 1635.76 903.265 1585.78 841.62 1585.78C779.974 1585.78 730 1635.76 730 1697.4C730 1759.05 779.974 1809.02 841.62 1809.02Z" fill="#FF4646" fill-opacity="0.2"/>
<path d="M1759.38 1809.02C1821.02 1809.02 1871 1759.05 1871 1697.4C1871 1635.76 1821.02 1585.78 1759.38 1585.78C1697.73 1585.78 1647.76 1635.76 1647.76 1697.4C1647.76 1759.05 1697.73 1809.02 1759.38 1809.02Z" fill="#FF4646" fill-opacity="0.2"/>
</svg>
