<svg width="2600" height="1640" viewBox="0 0 2600 1640" fill="none" xmlns="http://www.w3.org/2000/svg">
<path d="M962 1455.96C1062.52 1455.96 1144 1374.48 1144 1273.96C1144 1173.45 1062.52 1091.96 962 1091.96C861.484 1091.96 780 1173.45 780 1273.96C780 1374.48 861.484 1455.96 962 1455.96Z" fill="white"/>
<path d="M1638 1455.96C1738.52 1455.96 1820 1374.48 1820 1273.96C1820 1173.45 1738.52 1091.96 1638 1091.96C1537.48 1091.96 1456 1173.45 1456 1273.96C1456 1374.48 1537.48 1455.96 1638 1455.96Z" fill="white"/>
<path d="M962 1351.96C1005.08 1351.96 1040 1317.04 1040 1273.96C1040 1230.88 1005.08 1195.96 962 1195.96C918.922 1195.96 884 1230.88 884 1273.96C884 1317.04 918.922 1351.96 962 1351.96Z" fill="black" fill-opacity="0.7"/>
<path d="M1638 1351.96C1681.08 1351.96 1716 1317.04 1716 1273.96C1716 1230.88 1681.08 1195.96 1638 1195.96C1594.92 1195.96 1560 1230.88 1560 1273.96C1560 1317.04 1594.92 1351.96 1638 1351.96Z" fill="black" fill-opacity="0.7"/>
<path d="M779.689 1122.63C799.127 998.824 962.765 914.375 1081.13 968.876C1094.17 974.882 1109.61 969.177 1115.62 956.134C1121.63 943.091 1115.92 927.648 1102.88 921.643C953.538 852.879 753.169 956.285 728.318 1114.56C726.091 1128.75 735.785 1142.05 749.971 1144.28C764.157 1146.51 777.462 1136.81 779.689 1122.63Z" fill="black" fill-opacity="0.6"/>
<path d="M1820.32 1122.63C1800.89 998.824 1637.25 914.375 1518.88 968.876C1505.84 974.882 1490.4 969.177 1484.39 956.134C1478.39 943.091 1484.09 927.648 1497.13 921.643C1646.47 852.879 1846.84 956.285 1871.69 1114.56C1873.92 1128.75 1864.23 1142.05 1850.04 1144.28C1835.86 1146.51 1822.55 1136.81 1820.32 1122.63Z" fill="black" fill-opacity="0.6"/>
</svg>
