<svg width="2600" height="1640" viewBox="0 0 2600 1640" fill="none" xmlns="http://www.w3.org/2000/svg">
<mask id="mask0_16_10546" style="mask-type:alpha" maskUnits="userSpaceOnUse" x="780" y="1211" width="364" height="202">
<path fill-rule="evenodd" clip-rule="evenodd" d="M962 1394.4C1086.93 1394.4 1144 1452.27 1144 1362.08C1144 1271.89 1062.52 1211.78 962 1211.78C861.484 1211.78 780 1271.89 780 1362.08C780 1452.27 837.07 1394.4 962 1394.4Z" fill="white"/>
</mask>
<g mask="url(#mask0_16_10546)">
<path fill-rule="evenodd" clip-rule="evenodd" d="M962 1394.4C1086.93 1394.4 1144 1452.27 1144 1362.08C1144 1271.89 1062.52 1211.78 962 1211.78C861.484 1211.78 780 1271.89 780 1362.08C780 1452.27 837.07 1394.4 962 1394.4Z" fill="white"/>
<path d="M962 1419.78C1005.08 1419.78 1040 1384.86 1040 1341.78C1040 1298.7 1005.08 1263.78 962 1263.78C918.922 1263.78 884 1298.7 884 1341.78C884 1384.86 918.922 1419.78 962 1419.78Z" fill="black" fill-opacity="0.7"/>
</g>
<mask id="mask1_16_10546" style="mask-type:alpha" maskUnits="userSpaceOnUse" x="1456" y="1211" width="364" height="202">
<path fill-rule="evenodd" clip-rule="evenodd" d="M1638 1394.4C1762.93 1394.4 1820 1452.27 1820 1362.08C1820 1271.89 1738.52 1211.78 1638 1211.78C1537.48 1211.78 1456 1271.89 1456 1362.08C1456 1452.27 1513.07 1394.4 1638 1394.4Z" fill="white"/>
</mask>
<g mask="url(#mask1_16_10546)">
<path fill-rule="evenodd" clip-rule="evenodd" d="M1638 1394.4C1762.93 1394.4 1820 1452.27 1820 1362.08C1820 1271.89 1738.52 1211.78 1638 1211.78C1537.48 1211.78 1456 1271.89 1456 1362.08C1456 1452.27 1513.07 1394.4 1638 1394.4Z" fill="white"/>
<path d="M1638 1419.78C1681.08 1419.78 1716 1384.86 1716 1341.78C1716 1298.7 1681.08 1263.78 1638 1263.78C1594.92 1263.78 1560 1298.7 1560 1341.78C1560 1384.86 1594.92 1419.78 1638 1419.78Z" fill="black" fill-opacity="0.7"/>
</g>
<path d="M774.951 1136.18C830.071 1061.19 864.361 1064.89 948.012 1128.01C950.377 1129.8 951.878 1130.93 956.72 1134.61C1019.48 1182.22 1049.21 1198.78 1092 1198.78C1106.36 1198.78 1118 1187.14 1118 1172.78C1118 1158.42 1106.36 1146.78 1092 1146.78C1065.14 1146.78 1041.28 1133.49 988.148 1093.18C983.267 1089.48 981.748 1088.33 979.334 1086.5C930.46 1049.62 901.864 1033.51 866.296 1029.68C818.401 1024.51 774.541 1048.94 733.052 1105.38C724.548 1116.95 727.033 1133.22 738.603 1141.73C750.173 1150.23 766.447 1147.75 774.951 1136.18Z" fill="black" fill-opacity="0.6"/>
<path d="M1825.05 1136.18C1769.93 1061.19 1735.64 1064.89 1651.99 1128.01C1649.62 1129.8 1648.12 1130.93 1643.28 1134.61C1580.52 1182.22 1550.79 1198.78 1508 1198.78C1493.64 1198.78 1482 1187.14 1482 1172.78C1482 1158.42 1493.64 1146.78 1508 1146.78C1534.86 1146.78 1558.72 1133.49 1611.85 1093.18C1616.73 1089.48 1618.25 1088.33 1620.67 1086.5C1669.54 1049.62 1698.14 1033.51 1733.7 1029.68C1781.6 1024.51 1825.46 1048.94 1866.95 1105.38C1875.45 1116.95 1872.97 1133.22 1861.4 1141.73C1849.83 1150.23 1833.55 1147.75 1825.05 1136.18Z" fill="black" fill-opacity="0.6"/>
</svg>
