<svg width="2600" height="1640" viewBox="0 0 2600 1640" fill="none" xmlns="http://www.w3.org/2000/svg">
<path d="M962.004 1374.96C1005.08 1374.96 1040 1340.04 1040 1296.96C1040 1253.88 1005.08 1218.96 962.004 1218.96C918.926 1218.96 884.004 1253.88 884.004 1296.96C884.004 1340.04 918.926 1374.96 962.004 1374.96Z" fill="black" fill-opacity="0.6"/>
<path d="M897.004 1361.96C897.004 1361.96 819.004 1456.48 819.004 1508.48C819.004 1551.56 853.922 1586.48 897.004 1586.48C940.086 1586.48 975.004 1551.56 975.004 1508.48C975.004 1456.48 897.004 1361.96 897.004 1361.96Z" fill="#92D9FF"/>
<path d="M1638 1374.96C1681.08 1374.96 1716 1340.04 1716 1296.96C1716 1253.88 1681.08 1218.96 1638 1218.96C1594.93 1218.96 1560 1253.88 1560 1296.96C1560 1340.04 1594.93 1374.96 1638 1374.96Z" fill="black" fill-opacity="0.6"/>
<path d="M779.689 1129.63C799.127 1005.82 962.765 921.375 1081.13 975.876C1094.17 981.882 1109.61 976.177 1115.62 963.134C1121.63 950.091 1115.92 934.648 1102.88 928.643C953.538 859.879 753.169 963.285 728.318 1121.56C726.091 1135.75 735.785 1149.05 749.971 1151.28C764.157 1153.51 777.462 1143.81 779.689 1129.63Z" fill="black" fill-opacity="0.6"/>
<path d="M1820.32 1129.63C1800.89 1005.82 1637.25 921.375 1518.88 975.876C1505.84 981.882 1490.4 976.177 1484.39 963.134C1478.39 950.091 1484.09 934.648 1497.13 928.643C1646.47 859.879 1846.84 963.285 1871.69 1121.56C1873.92 1135.75 1864.23 1149.05 1850.04 1151.28C1835.86 1153.51 1822.55 1143.81 1820.32 1129.63Z" fill="black" fill-opacity="0.6"/>
</svg>
