<svg width="2600" height="1640" viewBox="0 0 2600 1640" fill="none" xmlns="http://www.w3.org/2000/svg">
<path d="M925 1455.96C1025.52 1455.96 1107 1374.48 1107 1273.96C1107 1173.45 1025.52 1091.96 925 1091.96C824.484 1091.96 743 1173.45 743 1273.96C743 1374.48 824.484 1455.96 925 1455.96Z" fill="white"/>
<path d="M1601 1455.96C1701.52 1455.96 1783 1374.48 1783 1273.96C1783 1173.45 1701.52 1091.96 1601 1091.96C1500.48 1091.96 1419 1173.45 1419 1273.96C1419 1374.48 1500.48 1455.96 1601 1455.96Z" fill="white"/>
<path d="M981 1399.96C1024.08 1399.96 1059 1365.04 1059 1321.96C1059 1278.88 1024.08 1243.96 981 1243.96C937.922 1243.96 903 1278.88 903 1321.96C903 1365.04 937.922 1399.96 981 1399.96Z" fill="black" fill-opacity="0.7"/>
<path d="M1657 1399.96C1700.08 1399.96 1735 1365.04 1735 1321.96C1735 1278.88 1700.08 1243.96 1657 1243.96C1613.92 1243.96 1579 1278.88 1579 1321.96C1579 1365.04 1613.92 1399.96 1657 1399.96Z" fill="black" fill-opacity="0.7"/>
<path d="M742.294 1013.99C800.864 931.571 924.827 890.117 1051.77 931.052C1065.46 935.468 1080.14 927.946 1084.56 914.252C1088.98 900.557 1081.45 885.875 1067.76 881.458C919.139 833.532 771.532 882.892 699.819 983.8C691.483 995.529 694.234 1011.79 705.963 1020.13C717.693 1028.47 733.958 1025.71 742.294 1013.99Z" fill="black" fill-opacity="0.6"/>
<path d="M1794.71 1105.12C1743.71 1033.36 1603.89 993.117 1483.45 1022.69C1469.48 1026.12 1455.37 1017.58 1451.93 1003.6C1448.5 989.63 1457.05 975.519 1471.02 972.088C1610.89 937.74 1772.8 984.339 1837.18 1074.93C1845.52 1086.66 1842.77 1102.93 1831.04 1111.27C1819.31 1119.6 1803.04 1116.85 1794.71 1105.12Z" fill="black" fill-opacity="0.6"/>
</svg>
