<svg width="2600" height="1640" viewBox="0 0 2600 1640" fill="none" xmlns="http://www.w3.org/2000/svg">
<path fill-rule="evenodd" clip-rule="evenodd" d="M782.078 1368.54C806.083 1319.16 860.134 1284.73 922.965 1284.73C985.574 1284.73 1039.46 1318.92 1063.6 1368.02C1070.76 1382.61 1060.56 1394.54 1050.27 1385.7C1018.41 1358.3 973.159 1341.2 922.965 1341.2C874.34 1341.2 830.355 1357.25 798.684 1383.16C787.104 1392.63 775.057 1382.99 782.078 1368.54Z" fill="black" fill-opacity="0.6"/>
<path fill-rule="evenodd" clip-rule="evenodd" d="M1536.08 1368.54C1560.08 1319.16 1614.13 1284.73 1676.96 1284.73C1739.57 1284.73 1793.46 1318.91 1817.6 1368.02C1824.76 1382.61 1814.56 1394.54 1804.27 1385.7C1772.41 1358.3 1727.16 1341.2 1676.96 1341.2C1628.34 1341.2 1584.35 1357.25 1552.68 1383.16C1541.1 1392.63 1529.06 1382.99 1536.08 1368.54Z" fill="black" fill-opacity="0.6"/>
<path d="M775.195 1195.79C826.089 1124.18 965.615 1084.02 1085.8 1113.53C1099.75 1116.96 1113.83 1108.43 1117.25 1094.49C1120.68 1080.54 1112.15 1066.46 1098.2 1063.03C958.627 1028.76 797.059 1075.26 732.809 1165.67C724.491 1177.37 727.236 1193.6 738.941 1201.92C750.645 1210.24 766.877 1207.5 775.195 1195.79Z" fill="black" fill-opacity="0.6"/>
<path d="M1824.81 1195.79C1773.92 1124.18 1634.39 1084.02 1514.21 1113.53C1500.26 1116.96 1486.18 1108.43 1482.76 1094.49C1479.33 1080.54 1487.86 1066.46 1501.81 1063.03C1641.38 1028.76 1802.95 1075.26 1867.2 1165.67C1875.52 1177.37 1872.77 1193.6 1861.07 1201.92C1849.36 1210.24 1833.13 1207.5 1824.81 1195.79Z" fill="black" fill-opacity="0.6"/>
</svg>
