<svg width="2600" height="1640" viewBox="0 0 2600 1640" fill="none" xmlns="http://www.w3.org/2000/svg">
<path d="M962 1412.78C1005.08 1412.78 1040 1377.86 1040 1334.78C1040 1291.7 1005.08 1256.78 962 1256.78C918.922 1256.78 884 1291.7 884 1334.78C884 1377.86 918.922 1412.78 962 1412.78Z" fill="black" fill-opacity="0.6"/>
<path d="M1638 1412.78C1681.08 1412.78 1716 1377.86 1716 1334.78C1716 1291.7 1681.08 1256.78 1638 1256.78C1594.92 1256.78 1560 1291.7 1560 1334.78C1560 1377.86 1594.92 1412.78 1638 1412.78Z" fill="black" fill-opacity="0.6"/>
<path d="M774.951 1142.18C830.071 1067.19 864.361 1070.89 948.012 1134.01C950.377 1135.8 951.878 1136.93 956.72 1140.61C1019.48 1188.22 1049.21 1204.78 1092 1204.78C1106.36 1204.78 1118 1193.14 1118 1178.78C1118 1164.42 1106.36 1152.78 1092 1152.78C1065.14 1152.78 1041.28 1139.49 988.148 1099.18C983.267 1095.48 981.748 1094.33 979.334 1092.5C930.46 1055.62 901.864 1039.51 866.296 1035.68C818.401 1030.51 774.541 1054.94 733.052 1111.38C724.548 1122.95 727.033 1139.22 738.603 1147.73C750.173 1156.23 766.447 1153.75 774.951 1142.18Z" fill="black" fill-opacity="0.6"/>
<path d="M1825.05 1142.18C1769.93 1067.19 1735.64 1070.89 1651.99 1134.01C1649.62 1135.8 1648.12 1136.93 1643.28 1140.61C1580.52 1188.22 1550.79 1204.78 1508 1204.78C1493.64 1204.78 1482 1193.14 1482 1178.78C1482 1164.42 1493.64 1152.78 1508 1152.78C1534.86 1152.78 1558.72 1139.49 1611.85 1099.18C1616.73 1095.48 1618.25 1094.33 1620.67 1092.5C1669.54 1055.62 1698.14 1039.51 1733.7 1035.68C1781.6 1030.51 1825.46 1054.94 1866.95 1111.38C1875.45 1122.95 1872.97 1139.22 1861.4 1147.73C1849.83 1156.23 1833.55 1153.75 1825.05 1142.18Z" fill="black" fill-opacity="0.6"/>
</svg>
