<svg width="2600" height="1640" viewBox="0 0 2600 1640" fill="none" xmlns="http://www.w3.org/2000/svg">
<path d="M993.236 1482.11C1084.49 1482.11 1158.47 1408.13 1158.47 1316.87C1158.47 1225.62 1084.49 1151.64 993.236 1151.64C901.979 1151.64 828 1225.62 828 1316.87C828 1408.13 901.979 1482.11 993.236 1482.11Z" fill="white"/>
<path d="M1606.97 1482.11C1698.23 1482.11 1772.21 1408.13 1772.21 1316.87C1772.21 1225.62 1698.23 1151.64 1606.97 1151.64C1515.71 1151.64 1441.73 1225.62 1441.73 1316.87C1441.73 1408.13 1515.71 1482.11 1606.97 1482.11Z" fill="white"/>
<path d="M993.237 1293.27C1032.35 1293.27 1064.05 1261.56 1064.05 1222.45C1064.05 1183.34 1032.35 1151.64 993.237 1151.64C954.127 1151.64 922.422 1183.34 922.422 1222.45C922.422 1261.56 954.127 1293.27 993.237 1293.27Z" fill="black" fill-opacity="0.7"/>
<path d="M1606.97 1293.27C1646.08 1293.27 1677.78 1261.56 1677.78 1222.45C1677.78 1183.34 1646.08 1151.64 1606.97 1151.64C1567.86 1151.64 1536.15 1183.34 1536.15 1222.45C1536.15 1261.56 1567.86 1293.27 1606.97 1293.27Z" fill="black" fill-opacity="0.7"/>
</svg>
