<svg width="2600" height="1640" viewBox="0 0 2600 1640" fill="none" xmlns="http://www.w3.org/2000/svg">
<path d="M1030.46 1139C997.296 1139 964.488 1164.74 946.5 1188.67C928.438 1164.74 895.704 1139 862.542 1139C791.18 1139 745 1182.34 745 1238.34C745 1312.82 802.354 1357.03 862.542 1403.9C884.035 1419.97 924.69 1461.11 929.708 1470.12C934.726 1479.13 957.086 1479.45 963.292 1470.12C969.497 1460.79 1008.93 1419.97 1030.46 1403.9C1090.61 1357.03 1148 1312.82 1148 1238.34C1148 1182.34 1101.82 1139 1030.46 1139Z" fill="#FF5353" fill-opacity="0.8"/>
<path d="M1647.46 1139C1614.3 1139 1581.49 1164.74 1563.5 1188.67C1545.44 1164.74 1512.7 1139 1479.54 1139C1408.18 1139 1362 1182.34 1362 1238.34C1362 1312.82 1419.35 1357.03 1479.54 1403.9C1501.03 1419.97 1541.69 1461.11 1546.71 1470.12C1551.73 1479.13 1574.09 1479.45 1580.29 1470.12C1586.5 1460.79 1625.93 1419.97 1647.46 1403.9C1707.61 1357.03 1765 1312.82 1765 1238.34C1765 1182.34 1718.82 1139 1647.46 1139Z" fill="#FF5353" fill-opacity="0.8"/>
<path d="M639.689 1106.63C659.127 982.824 822.765 898.375 941.129 952.876C954.173 958.882 969.615 953.177 975.62 940.134C981.626 927.091 975.921 911.648 962.878 905.643C813.538 836.879 613.169 940.285 588.318 1098.56C586.091 1112.75 595.785 1126.05 609.971 1128.28C624.157 1130.51 637.462 1120.81 639.689 1106.63Z" fill="black" fill-opacity="0.6"/>
<path d="M1864.32 1106.63C1844.89 982.824 1681.25 898.375 1562.88 952.876C1549.84 958.882 1534.4 953.177 1528.39 940.134C1522.39 927.091 1528.09 911.648 1541.13 905.643C1690.47 836.879 1890.84 940.285 1915.69 1098.56C1917.92 1112.75 1908.23 1126.05 1894.04 1128.28C1879.86 1130.51 1866.55 1120.81 1864.32 1106.63Z" fill="black" fill-opacity="0.6"/>
</svg>
