<svg width="2600" height="1648" viewBox="0 0 2600 1648" fill="none" xmlns="http://www.w3.org/2000/svg">
<mask id="mask0_20_3246" style="mask-type:alpha" maskUnits="userSpaceOnUse" x="740" y="1211" width="364" height="202">
<path fill-rule="evenodd" clip-rule="evenodd" d="M922 1394.4C1046.93 1394.4 1104 1452.27 1104 1362.08C1104 1271.89 1022.52 1211.78 922 1211.78C821.484 1211.78 740 1271.89 740 1362.08C740 1452.27 797.07 1394.4 922 1394.4Z" fill="white"/>
</mask>
<g mask="url(#mask0_20_3246)">
<path fill-rule="evenodd" clip-rule="evenodd" d="M922 1394.4C1046.93 1394.4 1104 1452.27 1104 1362.08C1104 1271.89 1022.52 1211.78 922 1211.78C821.484 1211.78 740 1271.89 740 1362.08C740 1452.27 797.07 1394.4 922 1394.4Z" fill="white"/>
<path d="M922 1419.78C965.078 1419.78 1000 1384.86 1000 1341.78C1000 1298.7 965.078 1263.78 922 1263.78C878.922 1263.78 844 1298.7 844 1341.78C844 1384.86 878.922 1419.78 922 1419.78Z" fill="black" fill-opacity="0.7"/>
</g>
<mask id="mask1_20_3246" style="mask-type:alpha" maskUnits="userSpaceOnUse" x="1416" y="1211" width="364" height="202">
<path fill-rule="evenodd" clip-rule="evenodd" d="M1598 1394.4C1722.93 1394.4 1780 1452.27 1780 1362.08C1780 1271.89 1698.52 1211.78 1598 1211.78C1497.48 1211.78 1416 1271.89 1416 1362.08C1416 1452.27 1473.07 1394.4 1598 1394.4Z" fill="white"/>
</mask>
<g mask="url(#mask1_20_3246)">
<path fill-rule="evenodd" clip-rule="evenodd" d="M1598 1394.4C1722.93 1394.4 1780 1452.27 1780 1362.08C1780 1271.89 1698.52 1211.78 1598 1211.78C1497.48 1211.78 1416 1271.89 1416 1362.08C1416 1452.27 1473.07 1394.4 1598 1394.4Z" fill="white"/>
<path d="M1598 1419.78C1641.08 1419.78 1676 1384.86 1676 1341.78C1676 1298.7 1641.08 1263.78 1598 1263.78C1554.92 1263.78 1520 1298.7 1520 1341.78C1520 1384.86 1554.92 1419.78 1598 1419.78Z" fill="black" fill-opacity="0.7"/>
</g>
<path d="M742.294 1101.99C800.864 1019.57 924.827 978.117 1051.77 1019.05C1065.46 1023.47 1080.14 1015.95 1084.56 1002.25C1088.98 988.557 1081.45 973.875 1067.76 969.458C919.139 921.532 771.532 970.892 699.819 1071.8C691.483 1083.53 694.234 1099.79 705.963 1108.13C717.693 1116.47 733.958 1113.71 742.294 1101.99Z" fill="black" fill-opacity="0.6"/>
<path d="M1794.71 1193.12C1743.71 1121.36 1603.89 1081.12 1483.45 1110.69C1469.48 1114.12 1455.37 1105.58 1451.93 1091.6C1448.5 1077.63 1457.05 1063.52 1471.02 1060.09C1610.89 1025.74 1772.8 1072.34 1837.18 1162.93C1845.52 1174.66 1842.77 1190.93 1831.04 1199.27C1819.31 1207.6 1803.04 1204.85 1794.71 1193.12Z" fill="black" fill-opacity="0.6"/>
<path d="M852 1423C852 1423 774 1517.52 774 1569.52C774 1612.6 808.918 1647.52 852 1647.52C895.082 1647.52 930 1612.6 930 1569.52C930 1517.52 852 1423 852 1423Z" fill="#92D9FF"/>
</svg>
