<svg width="2600" height="1640" viewBox="0 0 2600 1640" fill="none" xmlns="http://www.w3.org/2000/svg">
<path d="M962 1374C1005.08 1374 1040 1339.08 1040 1296C1040 1252.92 1005.08 1218 962 1218C918.922 1218 884 1252.92 884 1296C884 1339.08 918.922 1374 962 1374Z" fill="black" fill-opacity="0.6"/>
<path d="M897 1361C897 1361 819 1455.52 819 1507.52C819 1550.6 853.918 1585.52 897 1585.52C940.082 1585.52 975 1550.6 975 1507.52C975 1455.52 897 1361 897 1361Z" fill="#92D9FF"/>
<path d="M1638 1374C1681.08 1374 1716 1339.08 1716 1296C1716 1252.92 1681.08 1218 1638 1218C1594.92 1218 1560 1252.92 1560 1296C1560 1339.08 1594.92 1374 1638 1374Z" fill="black" fill-opacity="0.6"/>
<path d="M1066.37 978.685C1047.13 1087.74 883.202 1163.03 764.273 1114.29C751.081 1108.89 735.79 1114.7 730.12 1127.28C724.45 1139.86 730.549 1154.45 743.742 1159.85C892.517 1220.82 1092.6 1128.92 1117.65 986.911C1120.03 973.407 1110.48 960.619 1096.32 958.347C1082.16 956.076 1068.75 965.181 1066.37 978.685Z" fill="black" fill-opacity="0.6"/>
<path d="M1533.64 978.685C1552.88 1087.74 1716.81 1163.03 1835.74 1114.29C1848.93 1108.89 1864.22 1114.7 1869.89 1127.28C1875.56 1139.86 1869.46 1154.45 1856.27 1159.85C1707.49 1220.82 1507.42 1128.92 1482.36 986.911C1479.98 973.407 1489.53 960.619 1503.69 958.347C1517.85 956.076 1531.26 965.181 1533.64 978.685Z" fill="black" fill-opacity="0.6"/>
</svg>
