<svg width="2600" height="1640" viewBox="0 0 2600 1640" fill="none" xmlns="http://www.w3.org/2000/svg">
<path d="M779.689 1174.63C799.127 1050.82 962.765 966.375 1081.13 1020.88C1094.17 1026.88 1109.61 1021.18 1115.62 1008.13C1121.63 995.091 1115.92 979.648 1102.88 973.643C953.538 904.879 753.169 1008.28 728.318 1166.56C726.091 1180.75 735.785 1194.05 749.971 1196.28C764.157 1198.51 777.462 1188.81 779.689 1174.63Z" fill="black" fill-opacity="0.6"/>
<path d="M1820.32 1174.63C1800.89 1050.82 1637.25 966.375 1518.88 1020.88C1505.84 1026.88 1490.4 1021.18 1484.39 1008.13C1478.39 995.091 1484.09 979.648 1497.13 973.643C1646.47 904.879 1846.84 1008.28 1871.69 1166.56C1873.92 1180.75 1864.23 1194.05 1850.04 1196.28C1835.86 1198.51 1822.55 1188.81 1820.32 1174.63Z" fill="black" fill-opacity="0.6"/>
<path d="M962.004 1412.96C1005.08 1412.96 1040 1378.04 1040 1334.96C1040 1291.88 1005.08 1256.96 962.004 1256.96C918.926 1256.96 884.004 1291.88 884.004 1334.96C884.004 1378.04 918.926 1412.96 962.004 1412.96Z" fill="black" fill-opacity="0.6"/>
<path d="M1638 1412.96C1681.08 1412.96 1716 1378.04 1716 1334.96C1716 1291.88 1681.08 1256.96 1638 1256.96C1594.93 1256.96 1560 1291.88 1560 1334.96C1560 1378.04 1594.93 1412.96 1638 1412.96Z" fill="black" fill-opacity="0.6"/>
</svg>
