<svg width="2600" height="1640" viewBox="0 0 2600 1640" fill="none" xmlns="http://www.w3.org/2000/svg">
<path d="M962 1459.96C1062.52 1459.96 1144 1378.48 1144 1277.96C1144 1177.45 1062.52 1095.96 962 1095.96C861.484 1095.96 780 1177.45 780 1277.96C780 1378.48 861.484 1459.96 962 1459.96Z" fill="white"/>
<path d="M1638 1459.96C1738.52 1459.96 1820 1378.48 1820 1277.96C1820 1177.45 1738.52 1095.96 1638 1095.96C1537.48 1095.96 1456 1177.45 1456 1277.96C1456 1378.48 1537.48 1459.96 1638 1459.96Z" fill="white"/>
<path d="M986 1420C1029.08 1420 1064 1385.08 1064 1342C1064 1298.92 1029.08 1264 986 1264C942.922 1264 908 1298.92 908 1342C908 1385.08 942.922 1420 986 1420Z" fill="black" fill-opacity="0.7"/>
<path d="M1614 1420C1657.08 1420 1692 1385.08 1692 1342C1692 1298.92 1657.08 1264 1614 1264C1570.92 1264 1536 1298.92 1536 1342C1536 1385.08 1570.92 1420 1614 1420Z" fill="black" fill-opacity="0.7"/>
</svg>
