<svg width="2600" height="1640" viewBox="0 0 2600 1640" fill="none" xmlns="http://www.w3.org/2000/svg">
<path d="M1601 1455.96C1500.48 1455.96 1419 1374.48 1419 1273.96C1419 1173.45 1500.48 1091.96 1601 1091.96C1701.52 1091.96 1783 1173.45 1783 1273.96C1783 1374.48 1701.52 1455.96 1601 1455.96Z" fill="white"/>
<path d="M925 1455.96C824.484 1455.96 743 1374.48 743 1273.96C743 1173.45 824.484 1091.96 925 1091.96C1025.52 1091.96 1107 1173.45 1107 1273.96C1107 1374.48 1025.52 1455.96 925 1455.96Z" fill="white"/>
<path d="M1545 1399.96C1501.92 1399.96 1467 1365.04 1467 1321.96C1467 1278.88 1501.92 1243.96 1545 1243.96C1588.08 1243.96 1623 1278.88 1623 1321.96C1623 1365.04 1588.08 1399.96 1545 1399.96Z" fill="black" fill-opacity="0.7"/>
<path d="M869 1399.96C825.922 1399.96 791 1365.04 791 1321.96C791 1278.88 825.922 1243.96 869 1243.96C912.078 1243.96 947 1278.88 947 1321.96C947 1365.04 912.078 1399.96 869 1399.96Z" fill="black" fill-opacity="0.7"/>
<path d="M1794.71 1013.99C1736.14 931.571 1612.17 890.117 1485.23 931.052C1471.54 935.468 1456.86 927.946 1452.44 914.252C1448.02 900.557 1455.55 885.875 1469.24 881.458C1617.86 833.532 1765.47 882.892 1837.18 983.8C1845.52 995.529 1842.77 1011.79 1831.04 1020.13C1819.31 1028.47 1803.04 1025.71 1794.71 1013.99Z" fill="black" fill-opacity="0.6"/>
<path d="M742.294 1105.12C793.294 1033.36 933.111 993.117 1053.55 1022.69C1067.52 1026.12 1081.63 1017.58 1085.07 1003.6C1088.5 989.63 1079.95 975.519 1065.98 972.088C926.109 937.74 764.204 984.339 699.819 1074.93C691.483 1086.66 694.234 1102.93 705.963 1111.27C717.693 1119.6 733.958 1116.85 742.294 1105.12Z" fill="black" fill-opacity="0.6"/>
</svg>
