<svg width="2600" height="1640" viewBox="0 0 2600 1640" fill="none" xmlns="http://www.w3.org/2000/svg">
<path fill-rule="evenodd" clip-rule="evenodd" d="M769.082 1324.17C793.087 1373.55 847.137 1407.98 909.969 1407.98C972.578 1407.98 1026.47 1373.8 1050.6 1324.69C1057.77 1310.1 1047.57 1298.17 1037.28 1307.01C1005.41 1334.41 960.163 1351.52 909.969 1351.52C861.344 1351.52 817.359 1335.46 785.688 1309.55C774.108 1300.08 762.061 1309.73 769.082 1324.17Z" fill="black" fill-opacity="0.6"/>
<path fill-rule="evenodd" clip-rule="evenodd" d="M1523.08 1324.17C1547.09 1373.55 1601.14 1407.98 1663.97 1407.98C1726.58 1407.98 1780.47 1373.8 1804.6 1324.69C1811.77 1310.1 1801.57 1298.17 1791.28 1307.01C1759.41 1334.41 1714.16 1351.52 1663.97 1351.52C1615.34 1351.52 1571.36 1335.46 1539.69 1309.55C1528.11 1300.08 1516.06 1309.73 1523.08 1324.17Z" fill="black" fill-opacity="0.6"/>
<path d="M762.195 1085.04C813.089 1013.43 952.615 973.274 1072.8 1002.79C1086.75 1006.21 1100.83 997.684 1104.25 983.739C1107.68 969.794 1099.15 955.713 1085.2 952.289C945.627 918.013 784.059 964.514 719.809 1054.92C711.491 1066.63 714.236 1082.86 725.941 1091.18C737.645 1099.49 753.877 1096.75 762.195 1085.04Z" fill="black" fill-opacity="0.6"/>
<path d="M1811.81 1085.04C1760.92 1013.43 1621.39 973.274 1501.21 1002.79C1487.26 1006.21 1473.18 997.684 1469.76 983.739C1466.33 969.794 1474.86 955.713 1488.81 952.289C1628.38 918.013 1789.95 964.514 1854.2 1054.92C1862.52 1066.63 1859.77 1082.86 1848.07 1091.18C1836.36 1099.49 1820.13 1096.75 1811.81 1085.04Z" fill="black" fill-opacity="0.6"/>
</svg>
