<svg width="2600" height="1640" viewBox="0 0 2600 1640" fill="none" xmlns="http://www.w3.org/2000/svg">
<path d="M912 1412.96C955.078 1412.96 990 1378.04 990 1334.96C990 1291.88 955.078 1256.96 912 1256.96C868.922 1256.96 834 1291.88 834 1334.96C834 1378.04 868.922 1412.96 912 1412.96Z" fill="black" fill-opacity="0.6"/>
<path d="M1588 1412.96C1631.08 1412.96 1666 1378.04 1666 1334.96C1666 1291.88 1631.08 1256.96 1588 1256.96C1544.92 1256.96 1510 1291.88 1510 1334.96C1510 1378.04 1544.92 1412.96 1588 1412.96Z" fill="black" fill-opacity="0.6"/>
<path d="M742.294 1101.99C800.864 1019.57 924.827 978.117 1051.77 1019.05C1065.46 1023.47 1080.14 1015.95 1084.56 1002.25C1088.98 988.557 1081.45 973.875 1067.76 969.458C919.139 921.532 771.532 970.892 699.819 1071.8C691.483 1083.53 694.234 1099.79 705.963 1108.13C717.693 1116.47 733.958 1113.71 742.294 1101.99Z" fill="black" fill-opacity="0.6"/>
<path d="M1794.71 1193.12C1743.71 1121.36 1603.89 1081.12 1483.45 1110.69C1469.48 1114.12 1455.37 1105.58 1451.93 1091.6C1448.5 1077.63 1457.05 1063.52 1471.02 1060.09C1610.89 1025.74 1772.8 1072.34 1837.18 1162.93C1845.52 1174.66 1842.77 1190.93 1831.04 1199.27C1819.31 1207.6 1803.04 1204.85 1794.71 1193.12Z" fill="black" fill-opacity="0.6"/>
</svg>
