<svg width="2604" height="2520" viewBox="0 0 2604 2520" fill="none" xmlns="http://www.w3.org/2000/svg">
<path fill-rule="evenodd" clip-rule="evenodd" d="M680.247 1151.64C853.351 1104.43 1006.78 1041.48 1140.55 962.796C1116.94 1010.01 1022.52 1104.43 1223.17 1045.41C1423.81 986.401 1600.85 832.968 1612.65 832.968C1624.45 832.968 1730.68 1257.86 1836.9 1269.66C1907.71 1277.53 1943.12 1179.18 1943.12 974.599V986.401V939.191L1848.7 679.534L1482.82 561.509L1010.72 644.127L703.852 762.152L621.234 974.599L680.247 1151.64Z" fill="black" fill-opacity="0.16"/>
<path fill-rule="evenodd" clip-rule="evenodd" d="M2150.24 692.591C2150.24 692.591 2308.87 716.172 2319.59 677.59C2330.31 638.995 2261.71 516.815 1895.15 448.219C1895.15 448.219 1976.61 285.296 1946.6 285.296C1916.58 285.296 1841.57 386.055 1841.57 386.055C1841.57 386.055 1697.94 66.6419 1652.91 81.6547C1607.9 96.6558 1652.91 244.577 1652.91 244.577C1652.91 244.577 1361.38 66.5474 943.38 94.5195C675.332 112.448 649.697 186.591 780.457 257.383C780.457 257.383 598.249 308.878 375.311 542.533C152.372 776.188 173.805 909.097 190.954 924.11C208.104 939.111 358.161 870.514 358.161 870.514C358.161 870.514 263.835 1059.15 268.12 1327.11C273.797 1681.87 407.461 1760.13 448.191 1764.42C488.922 1768.7 476.057 1647.22 476.057 1647.22C476.057 1647.22 568.837 1813.46 729.706 1855.71C684.066 1775.3 654.807 1684.36 646.463 1587.45C578.279 1577.25 525.97 1518.43 525.97 1447.39V1293.96C525.97 1228.7 570.124 1173.82 630.163 1157.39C629.774 1225.87 630.506 1409.11 649.697 1402.14C673.266 1393.57 720.429 1057.01 720.429 1057.01C720.429 1057.01 1067.71 1014.14 1372.1 739.754C1372.1 739.754 1134.16 986.274 1166.31 1003.42C1198.47 1020.57 1545.88 863.079 1644.35 724.753C1644.35 724.753 1667.93 867.104 1706.51 989.296C1730.61 1065.61 1805.12 1204.93 1837.27 1196.35C1869.43 1187.78 1873.71 1037.72 1873.71 1037.72C1873.71 1037.72 1912.3 1350.69 1933.73 1335.69C1955.18 1320.68 1965.89 1154.28 1965.89 1154.28C2032.87 1165.52 2083.92 1223.78 2083.92 1293.96V1447.39C2083.92 1518.43 2031.61 1577.25 1963.43 1587.45C1955.13 1683.76 1926.17 1774.14 1881 1854.2C1934.42 1826.5 2006.39 1770.51 2055.92 1659.39C2055.92 1659.39 1985.19 1855.78 2034.48 1860.48C2083.79 1865.16 2287.44 1742.98 2328.16 1421.42C2328.16 1421.42 2381.76 1515.75 2422.48 1498.6C2463.22 1481.45 2446.06 943.395 2150.24 692.591Z" fill="#755435"/>
</svg>
