<svg width="2600" height="2520" viewBox="0 0 2600 2520" fill="none" xmlns="http://www.w3.org/2000/svg">
<path fill-rule="evenodd" clip-rule="evenodd" d="M1288.76 300.973C1411.08 300.973 1527.09 310.345 1631.21 327.137C1896.43 451.521 2080.09 720.935 2080.09 1033.25L2080.1 1234.55C1942.9 1230.14 1780.65 1063.67 1693.89 825.299L1695.67 830.087C1575.93 854.135 1436.97 867.895 1288.76 867.895C1147.49 867.895 1014.61 855.391 898.772 833.391L901.764 825.299C816.16 1060.5 657.065 1225.69 521.055 1234.29L521.057 1033.25C521.057 716.39 710.107 443.688 981.565 321.783C1076.38 308.372 1180.09 300.973 1288.76 300.973Z" fill="black" fill-opacity="0.16"/>
<path fill-rule="evenodd" clip-rule="evenodd" d="M1562.41 113C1785.39 113 1975.57 253.43 2049.33 450.673C2295.73 491.384 2483.66 705.437 2483.66 963.383C2483.66 1077.56 2446.84 1183.15 2384.42 1268.9C2503.16 1372.8 2578.15 1525.47 2578.15 1695.66C2578.15 2008.76 2324.33 2262.58 2011.23 2262.58C1955.47 2262.58 1901.59 2254.53 1850.68 2239.53C1801.3 2281.23 1746.58 2317.82 1688.5 2347.5C1670.07 2346.28 1671.71 2345 1653 2345H1583.65V2126.5C1790.7 2028.14 1938.56 1825.64 1959.15 1586.5C2027.39 1576.29 2079.15 1519.09 2079.15 1448V1294.5C2079.15 1244.6 2056.31 1200.31 2017.33 1175.06C1993.15 1166.5 1981.91 1156.82 1962.15 1153.5V1148C1859.62 1085.37 1758.92 954.793 1696.15 785C1576.41 809.045 1438.96 821.652 1290.76 821.652C1149.49 821.652 1016.61 809.149 900.778 787.15C839.054 952.326 741.134 1082 641.172 1145.54L641.148 1155C628.648 1157.5 616.401 1161.87 605.648 1166C555.492 1190.97 524.5 1241.82 524.5 1298.5L523.057 1447.5C523.057 1518.59 578.258 1584.79 646.5 1595C669 1831.5 818.148 2012.85 1019.15 2127L1018.15 2346L963.148 2347.05C944.434 2347.05 932.062 2345.86 913.648 2347.05C855.547 2317.4 803.846 2281.23 754.442 2239.54C703.563 2254.53 649.682 2262.58 593.922 2262.58C280.82 2262.58 27 2008.76 27 1695.66C27 1525.47 101.988 1372.8 220.725 1268.89C158.311 1183.15 121.487 1077.56 121.487 963.383C121.487 705.437 309.418 491.384 555.829 450.677C629.581 253.43 819.758 113 1042.73 113C1137.4 113 1226.14 138.309 1302.58 182.529C1379.01 138.306 1467.76 113 1562.41 113Z" fill="#755435"/>
</svg>
