<svg width="2600" height="2520" viewBox="0 0 2600 2520" fill="none" xmlns="http://www.w3.org/2000/svg">
<path fill-rule="evenodd" clip-rule="evenodd" d="M1863.54 463.102C1830.9 429.747 1793 401.436 1756.13 373.045C1748 366.787 1739.73 360.68 1731.78 354.183C1729.97 352.707 1711.45 339.444 1709.24 334.563C1703.91 322.82 1707 331.964 1707.73 317.951C1708.66 300.232 1744.79 250.186 1717.83 238.709C1705.97 233.661 1684.81 247.094 1673.44 251.531C1651.18 260.214 1628.66 267.619 1605.65 274.004C1616.67 252.043 1637.69 208.08 1598.19 219.847C1567.42 229.014 1538.74 252.582 1507.82 263.67C1518.05 246.9 1558.97 194.933 1522 192.028C1510.49 191.123 1477.01 212.703 1464.63 217.307C1427.53 231.097 1389.63 240.01 1350.68 247.031C1218.23 270.901 1063.34 264.095 940.801 324.396C846.327 370.882 753.04 443.013 698.465 534.864C645.863 623.396 626.189 720.286 615.179 821.736C607.101 896.189 606.444 973.149 610.222 1047.87C611.456 1072.35 614.21 1185.2 649.776 1151.03C667.496 1134 667.365 1065.24 671.828 1041.96C680.709 995.654 689.259 949.14 704.067 904.312C730.162 825.316 760.945 741.168 825.953 686.761C867.671 651.85 896.966 604.665 936.888 569.445C954.822 553.626 941.137 555.273 969.97 557.349C989.34 558.742 1008.8 559.274 1028.21 559.782C1073.1 560.948 1118.07 560.651 1162.98 560.809C1253.43 561.135 1343.45 562.413 1433.81 557.678C1473.97 555.575 1514.23 554.436 1554.28 550.722C1576.66 548.646 1616.35 534.308 1634.77 545.265C1651.62 555.289 1669.12 588.021 1681.22 601.427C1709.82 633.107 1743.91 657.303 1777.34 683.28C1847.06 737.446 1882.25 805.477 1903.43 890.125C1924.52 974.459 1918.61 1052.7 1944.72 1135.69C1949.31 1150.28 1961.46 1175.44 1976.44 1152.89C1979.22 1148.7 1978.5 1125.69 1978.5 1112.44C1978.5 1058.98 1992.04 1018.87 1991.87 965.065C1991.2 801.461 1985.91 588.128 1863.54 463.102Z" fill="#2C1B18"/>
</svg>
