<svg width="2600" height="2520" viewBox="0 0 2600 2520" fill="none" xmlns="http://www.w3.org/2000/svg">
<path fill-rule="evenodd" clip-rule="evenodd" d="M676.247 1151.64C849.351 1104.43 1002.78 1041.48 1136.55 962.796C1112.94 1010.01 1018.52 1104.43 1219.17 1045.41C1419.81 986.401 1596.85 832.968 1608.65 832.968C1620.45 832.968 1726.68 1257.86 1832.9 1269.66C1903.71 1277.53 1939.12 1179.18 1939.12 974.599V986.401V939.191L1844.7 679.534L1478.82 561.509L1006.72 644.127L699.852 762.152L617.234 974.599L676.247 1151.64Z" fill="black" fill-opacity="0.16"/>
<path fill-rule="evenodd" clip-rule="evenodd" d="M2146.24 692.591C2146.24 692.591 2304.87 716.172 2315.59 677.59C2326.31 638.995 2257.71 516.815 1891.15 448.219C1891.15 448.219 1972.61 285.296 1942.6 285.296C1912.58 285.296 1837.57 386.055 1837.57 386.055C1837.57 386.055 1693.94 66.6419 1648.91 81.6547C1603.9 96.6558 1648.91 244.577 1648.91 244.577C1648.91 244.577 1357.38 66.5474 939.38 94.5195C671.332 112.448 645.697 186.591 776.457 257.383C776.457 257.383 594.249 308.878 371.311 542.533C148.372 776.188 169.805 909.097 186.954 924.11C204.104 939.111 354.161 870.514 354.161 870.514C354.161 870.514 259.835 1059.15 264.12 1327.11C269.797 1681.87 403.461 1760.13 444.191 1764.42C484.922 1768.7 472.057 1647.22 472.057 1647.22C472.057 1647.22 564.837 1813.46 725.706 1855.71C680.066 1775.3 650.807 1684.36 642.463 1587.45C574.279 1577.25 521.97 1518.43 521.97 1447.39V1293.96C521.97 1228.7 566.124 1173.82 626.163 1157.39C625.774 1225.87 626.506 1409.11 645.697 1402.14C669.266 1393.57 716.429 1057.01 716.429 1057.01C716.429 1057.01 1063.71 1014.14 1368.1 739.754C1368.1 739.754 1130.16 986.274 1162.31 1003.42C1194.47 1020.57 1541.88 863.079 1640.35 724.753C1640.35 724.753 1663.93 867.104 1702.51 989.296C1726.61 1065.61 1801.12 1204.93 1833.27 1196.35C1865.43 1187.78 1869.71 1037.72 1869.71 1037.72C1869.71 1037.72 1908.3 1350.69 1929.73 1335.69C1951.18 1320.68 1961.89 1154.28 1961.89 1154.28C2028.87 1165.52 2079.92 1223.78 2079.92 1293.96V1447.39C2079.92 1518.43 2027.61 1577.25 1959.43 1587.45C1951.13 1683.76 1922.17 1774.14 1877 1854.2C1930.42 1826.5 2002.39 1770.51 2051.92 1659.39C2051.92 1659.39 1981.19 1855.78 2030.48 1860.48C2079.79 1865.16 2283.44 1742.98 2324.16 1421.42C2324.16 1421.42 2377.76 1515.75 2418.48 1498.6C2459.22 1481.45 2442.06 943.395 2146.24 692.591Z" fill="#D6B370"/>
</svg>
