<svg width="2600" height="2520" viewBox="0 0 2600 2520" fill="none" xmlns="http://www.w3.org/2000/svg">
<path fill-rule="evenodd" clip-rule="evenodd" d="M2173 2214.08C2173 2314.97 2156.01 2410.36 2124.5 2500.5C1987.5 2408 1833.65 2343.75 1649.5 2343.75H1583.47V2126C1790.16 2027.82 1937.76 1826.4 1958.31 1587.71C2026.43 1577.52 2078.68 1518.76 2078.68 1447.81V1294.56C2078.68 1274.64 2074.56 1255.68 2067.13 1238.49C1914.36 1212.7 1742.39 1150.36 1573.44 1052.84C1430.4 970.264 1308.12 873.207 1214.07 772.935C1254.47 866.163 1303.4 947.83 1360.85 1017.94C1211.4 952.829 1109.64 848.15 1055.57 703.899C1051.12 714.768 1046.48 725.624 1041.65 736.462C925.644 996.979 729.739 1184.71 527.772 1255.58C524.222 1267.96 522.324 1281.04 522.324 1294.56V1447.81C522.324 1518.76 574.569 1577.52 642.694 1587.71C665.5 1827 811.303 2027.32 1018 2125.5V2343L951.5 2342C769.5 2348 614.611 2400.89 475.5 2500.5C443.987 2410.37 428 2314.97 428 2214.08V1082.36C428 600.57 818.632 210 1300.5 210L1314.93 210.117C1790.14 217.821 2173 605.388 2173 1082.36V2214.08Z" fill="#2D1B18"/>
<path fill-rule="evenodd" clip-rule="evenodd" d="M1042.65 736.543C1047.48 725.704 1052.12 714.846 1056.57 703.976C1103.8 829.982 1187.4 925.798 1307.37 991.425C1324.58 1017.31 1342.74 1041.91 1361.85 1065.23C1212.4 1000.11 1110.64 895.411 1056.57 751.138C1052.12 762.008 1047.48 772.866 1042.65 783.705C907.573 1087.1 664.167 1291.79 429 1328.19V1281.03C664.167 1244.62 907.573 1039.94 1042.65 736.543ZM2174 1298.04C1997.7 1287.8 1783.75 1220.97 1574.44 1100.13C1453.3 1030.19 1347.05 949.859 1260.23 865.985C1244.16 836.388 1229.1 805.402 1215.07 773.022C1309.12 873.31 1431.4 970.383 1574.44 1052.97C1783.75 1173.81 1997.7 1240.64 2174 1250.88V1298.04Z" fill="black" fill-opacity="0.16"/>
</svg>
