<svg width="2600" height="3301" viewBox="0 0 2600 3301" fill="none" xmlns="http://www.w3.org/2000/svg">
<path fill-rule="evenodd" clip-rule="evenodd" d="M1630.73 2343C2100.05 2343 2480.51 2723.46 2480.51 3192.78V3300.4H120V3192.78C120 2723.46 500.462 2343 969.785 2343L983.858 2343C982.358 2354.61 981.587 2366.43 981.587 2378.41C981.587 2541.37 1124.26 2673.47 1300.26 2673.47C1476.25 2673.47 1618.93 2541.37 1618.93 2378.41C1618.93 2366.43 1618.15 2354.61 1616.66 2343L1630.73 2343Z" fill="#669933"/>
<path fill-rule="evenodd" clip-rule="evenodd" d="M1584 2285C1663.93 2339.26 1713.18 2416.22 1713.18 2501.57C1713.18 2588.92 1660.92 2667.48 1577.69 2721.91L1507.57 2666.66L1453.52 2670.58L1465.33 2630.5C1534.5 2591.5 1583 2534.73 1583 2466L1584 2285ZM1133.5 2630L1146.66 2670.58L1092.6 2666.66L1022.49 2721.91C940.827 2668.5 888.977 2591.87 887.055 2506.49L887 2501.57C887 2416.22 938.065 2339.26 1018 2285V2467.5C1018 2536.23 1062.5 2586 1133.5 2630Z" fill="#3D5C01"/>
<path d="M1644 2826C1635.16 2826 1628 2833.16 1628 2842V3031.65C1628 3049.77 1631.57 3067.71 1638.5 3084.46C1645.44 3101.2 1655.6 3116.41 1668.42 3129.23C1681.23 3142.04 1696.45 3152.21 1713.19 3159.14C1729.93 3166.08 1747.88 3169.65 1766 3169.65C1784.12 3169.65 1802.07 3166.08 1818.81 3159.14C1835.55 3152.21 1850.77 3142.04 1863.58 3129.23C1876.4 3116.41 1886.56 3101.2 1893.5 3084.46C1900.43 3067.71 1904 3049.77 1904 3031.65V2842C1904 2833.16 1896.84 2826 1888 2826H1644Z" fill="white"/>
<path d="M1866.12 3020.82C1866.12 3085.77 1812 3123.65 1763.29 3123.65C1709.18 3123.65 1665.88 3074.94 1665.88 3020.82C1665.88 2977.53 1698.35 2939.65 1741.65 2939.65C1774.12 2939.65 1795.77 2955.88 1812 2977.53C1790.35 2982.94 1779.53 3004.59 1779.53 3020.82C1779.53 3047.88 1795.77 3064.12 1817.41 3064.12C1839.06 3064.12 1860.71 3053.29 1866.12 3020.82Z" fill="#669933"/>
<path d="M1660.47 2863.88V2928.82C1682.12 2912.59 1714.59 2901.76 1747.06 2901.76C1806.59 2901.76 1866.12 2955.88 1866.12 3020.82V2863.88H1660.47Z" fill="#0099DD"/>
</svg>
