<svg width="2600" height="3300" viewBox="0 0 2600 3300" fill="none" xmlns="http://www.w3.org/2000/svg">
<path fill-rule="evenodd" clip-rule="evenodd" d="M1301.26 418.879C1666.29 418.879 1962.2 714.793 1962.2 1079.82L1962.21 1152.6C2029.19 1163.84 2080.23 1222.09 2080.23 1292.27V1457.5C2080.23 1528.94 2027.34 1588.02 1958.59 1597.74C1934.2 1831.49 1787.97 2029 1584.53 2125.65L1584.52 2342.7H1631.73C2101.05 2342.7 2481.51 2723.16 2481.51 3192.48V3299H121L121 3192.48C121 2723.16 501.462 2342.7 970.785 2342.7H1017.99L1017.99 2125.66C814.549 2029.01 668.31 1831.49 643.914 1597.73C575.172 1588.02 522.287 1528.94 522.287 1457.5V1292.27C522.287 1222.09 573.329 1163.83 640.315 1152.6L640.313 1079.82C640.313 714.793 936.227 418.879 1301.26 418.879Z" fill="#F1C991"/>
<path fill-rule="evenodd" clip-rule="evenodd" d="M1017 2126.65C1102.86 2167.44 1198.9 2190.26 1300.28 2190.26C1401.65 2190.26 1497.69 2167.44 1583.54 2126.66L1583.55 2189.62C1506.14 2242.18 1412.7 2272.88 1312.09 2272.88C1201.01 2272.88 1098.68 2235.46 1017.01 2172.53L1017 2126.65Z" fill="black" fill-opacity="0.24"/>
<path fill-rule="evenodd" clip-rule="evenodd" d="M1206 1517.52C1206 1582.7 1253.77 1611.94 1300.42 1611.94C1347.07 1611.94 1394.84 1582.7 1394.84 1517.52C1369.26 1526.15 1337.49 1530.47 1299.52 1530.47C1261.95 1530.47 1230.78 1526.15 1206 1517.52Z" fill="black" fill-opacity="0.16"/>
</svg>
